# xmcd
#
# Track frame offsets: 
#        150
#        14001
#        27537
#        33410
#        55387
#        64805
#        79518
#        89557
#        98990
#        112514
#        124610
#        145293
#        159228
#
# Disc length: 2422 seconds
#
# Revision: 0
# Processed by: cddbd v1.5.2PL0 Copyright (c) Steve Scherf et al.
# Submitted via: ExactAudioCopy v0.95a3
#
DISCID=a609740d
DTITLE=The Soaked Lamb - Homemade Blues
DYEAR=2007
DGENRE=Blues
TTITLE0=A Coffin for Two
TTITLE1=The Soaked Lamb
TTITLE2=Another Man Done Gone
TTITLE3=Death Don't Have No Mercy
TTITLE4=Color Blues
TTITLE5=Saint James Infirmary
TTITLE6=Beer Song (For a Romantic Evening)
TTITLE7=Miss Celie's Blues
TTITLE8=Cause of it All
TTITLE9=Doomed to Heaven Rag
TTITLE10=Tombstones Under Oak Trees
TTITLE11=Rope Strechin' Blues
TTITLE12=Work Song
EXTD=
EXTT0=
EXTT1=
EXTT2=
EXTT3=
EXTT4=
EXTT5=
EXTT6=
EXTT7=
EXTT8=
EXTT9=
EXTT10=
EXTT11=
EXTT12=
PLAYORDER=
